PathFileType	4	(X/Y/Z)	C:/Users/opensim2020/Desktop/walking_exp_matlab/subject06_walking14_straight_02.trc																																																																																																																																					
DataRate	CameraRate	NumFrames	NumMarkers	Units	OrigDataRate	OrigDataStartFrame	OrigNumFrames																																																																																																																																	
100	100	6	45	mm	100	1628	192																																																																																																																																	
Frame#	Time	LFHD			RFHD			LBHD			RBHD			C7			T10			CLAV			STRN			RBAK			LSHO			LUPA			LELB			LFRM			LWRA			LWRB			LFIN			RSHO			RUPA			RELB			RFRM			RWRA			RWRB			RFIN			LASI			RASI			LPSI			RPSI			LTHI			LKNE			LTIB			LANK			LHEE			LTOE			RTHI			RKNE			RTIB			RANK			RHEE			RTOE			*39			*40			*41			*42			*43			*44		
		X1	Y1	Z1	X2	Y2	Z2	X3	Y3	Z3	X4	Y4	Z4	X5	Y5	Z5	X6	Y6	Z6	X7	Y7	Z7	X8	Y8	Z8	X9	Y9	Z9	X10	Y10	Z10	X11	Y11	Z11	X12	Y12	Z12	X13	Y13	Z13	X14	Y14	Z14	X15	Y15	Z15	X16	Y16	Z16	X17	Y17	Z17	X18	Y18	Z18	X19	Y19	Z19	X20	Y20	Z20	X21	Y21	Z21	X22	Y22	Z22	X23	Y23	Z23	X24	Y24	Z24	X25	Y25	Z25	X26	Y26	Z26	X27	Y27	Z27	X28	Y28	Z28	X29	Y29	Z29	X30	Y30	Z30	X31	Y31	Z31	X32	Y32	Z32	X33	Y33	Z33	X34	Y34	Z34	X35	Y35	Z35	X36	Y36	Z36	X37	Y37	Z37	X38	Y38	Z38	X39	Y39	Z39	X40	Y40	Z40	X41	Y41	Z41	X42	Y42	Z42	X43	Y43	Z43	X44	Y44	Z44	X45	Y45	Z45
																																																																																																																																								
49	0.48	-465.43723	1655.07031	930.94617	-458.1373	1646.50085	1062.80847	-596.30841	1595.35657	938.57727	-587.61694	1592.14673	1067.98181	-585.84729	1437.86951	993.86609	-609.62268	1108.43481	1007.70258	-471.31555	1366.66846	994.49072	-425.57825	1192.69385	995.90149	-652.95111	1269.21338	1080.38318	-528.98407	1392.27063	832.26483	-567.73871	1193.35974	766.13727	-597.82526	1084.60547	761.05792	-608.39838	934.52496	739.73175	-573.4411	808.9187	780.8623	-634.4303	818.492	744.09302	-614.146	728.71362	745.39081	-515.96924	1399.63867	1155.33411	-520.80847	1202.08704	1250.70117	-483.46039	1087.5094	1271.21851	-420.85156	986.49506	1291.21204	-301.86505	896.17389	1269.52478	-354.96872	864.79919	1293.57935	-287.27338	817.48285	1304.02576	-411.45868	959.17767	912.99335	-437.53812	958.05908	1130.68323	-574.69049	980.60724	926.3913	-585.80774	976.47003	1093.69531	-443.32068	648.14691	847.00208	-430.61581	484.75604	868.99359	-423.10117	229.00395	882.79742	-397.87866	61.56471	932.5047	-434.59271	48.5082	978.7395	-249.83096	36.19745	935.76477	-502.49628	615.87323	1191.83618	-500.71805	487.64685	1184.19348	-694.10254	313.01196	1158.65833	-832.57196	197.01628	1103.14111	-864.25385	215.65111	1053.48242	-785.7699	46.57947	1098.98535	-563.71613	1690.82227	994.98291	NaN	NaN	NaN	NaN	NaN	NaN	NaN	NaN	NaN	NaN	NaN	NaN	NaN	NaN	NaN
50	0.49	-455.65921	1656.24841	930.48755	-448.66312	1647.48047	1062.37244	-586.30603	1596.34949	937.79913	-577.77728	1592.87073	1066.80017	-575.5827	1438.82568	992.58453	-598.7677	1109.19336	1007.02179	-461.12582	1367.74097	993.87	-414.85922	1193.78076	995.17078	-642.88342	1269.72375	1078.80701	-517.78687	1393.00623	831.3631	-553.57709	1193.47839	764.3139	-582.1106	1084.22681	758.6264	-590.17316	934.0022	736.8501	-553.42676	809.14069	779.09961	-613.89557	817.60461	741.14496	-592.0777	728.30499	742.40674	-506.41742	1400.29492	1154.63977	-512.99109	1202.14563	1249.4375	-477.09207	1087.02808	1269.75586	-416.97641	984.367	1289.78662	-300.47888	890.51685	1268.75574	-354.56378	860.83429	1292.79724	-288.39874	811.59222	1303.68188	-400.83731	960.0752	911.81458	-427.32782	958.039	1130.02478	-564.31299	981.72253	926.53479	-575.40753	976.7724	1093.89063	-437.88	648.72662	846.21277	-428.43686	484.91507	867.51996	-422.87833	228.96298	882.52209	-397.9137	61.45293	932.5777	-434.60818	48.43635	978.6842	-249.85709	36.14378	935.89648	-486.7403	615.68872	1192.09045	-480.9873	487.88486	1185.21106	-674.00519	316.46851	1159.53015	-814.91949	204.16844	1103.05969	-845.21088	224.67653	1053.16016	-776.10321	50.96719	1100.54578	-554.11774	1691.79126	994.33905	NaN	NaN	NaN	NaN	NaN	NaN	NaN	NaN	NaN	NaN	NaN	NaN	NaN	NaN	NaN
51	0.5	-445.89233	1657.43005	930.06537	-439.26639	1648.47217	1061.92822	-576.49939	1597.27527	936.94659	-568.24237	1593.65356	1065.94946	-565.58759	1439.70288	991.52618	-588.22339	1110.06274	1006.46875	-450.957	1368.78003	993.34064	-404.2626	1194.79407	994.73615	-632.87067	1270.38403	1077.39929	-506.74084	1393.6759	830.57562	-539.19666	1193.53308	762.52686	-566.11133	1083.87854	756.31885	-571.07404	933.45435	734.44543	-532.22253	809.39276	776.46265	-592.77136	816.74164	738.26367	-568.95172	728.0202	739.59894	-496.83984	1400.97498	1154.05225	-505.34805	1202.40601	1248.2771	-470.72559	1086.64966	1268.23169	-413.26883	982.28986	1288.27588	-299.51425	884.81232	1267.91699	-354.51999	856.91101	1292.12939	-289.63089	805.29706	1303.07117	-391.15161	960.77942	911.30652	-417.92419	958.0318	1129.53748	-554.2016	982.81494	926.3764	-565.29742	977.1441	1093.8103	-433.39813	649.10236	845.31647	-426.03287	484.87259	866.55682	-422.539	229.0262	882.37738	-397.54425	61.62561	932.53595	-434.79056	48.55017	978.76727	-249.68729	36.278	935.79694	-471.23419	615.89813	1192.32239	-461.26108	488.6756	1185.91907	-652.99872	319.08691	1160.40918	-796.72217	210.67068	1102.33093	-825.72949	231.39201	1051.32922	-762.75867	54.75245	1103.48828	-544.59717	1692.71875	993.69366	NaN	NaN	NaN	NaN	NaN	NaN	NaN	NaN	NaN	NaN	NaN	NaN	NaN	NaN	NaN
52	0.51	-436.17032	1658.52087	929.60919	-429.81769	1649.51331	1061.453	-566.71564	1598.0459	935.96558	-559.08453	1594.4209	1065.4104	-555.44446	1440.40515	990.60028	-577.81873	1111.02979	1005.79614	-440.75604	1369.78784	992.94952	-393.78894	1195.78296	994.44788	-622.9198	1271.13232	1076.1167	-495.75366	1394.40039	829.93298	-524.71991	1193.67554	761.05414	-549.79907	1083.55505	754.09735	-551.1897	933.23608	732.38495	-511.19473	809.88092	773.98181	-571.12628	816.13147	735.19568	-545.84796	727.93195	736.46039	-487.32736	1401.7074	1153.57239	-497.64984	1202.73303	1247.05139	-464.27023	1086.36279	1266.63293	-409.6749	980.30438	1286.80933	-298.95459	879.11615	1267.04602	-355.03098	853.11285	1291.03247	-292.29068	799.89594	1302.72693	-381.46652	961.44873	910.80695	-407.39905	958.52142	1129.15637	-544.19348	983.88605	925.84253	-555.42755	977.63696	1093.29651	-428.76959	649.51459	844.35529	-422.54376	485.13071	865.73315	-421.49094	229.09058	882.20795	-397.61554	61.67148	932.56274	-434.96259	48.62203	978.83264	-249.83157	36.078	935.93823	-455.77689	616.66162	1192.50928	-441.84348	490.04605	1186.58044	-632.14008	321.28806	1160.91614	-778.38098	216.67239	1101.06934	-806.78644	235.68333	1049.10242	-744.41412	59.26046	1106.33862	-535.14435	1693.5437	992.97296	NaN	NaN	NaN	NaN	NaN	NaN	NaN	NaN	NaN	NaN	NaN	NaN	NaN	NaN	NaN
53	0.52	-426.50949	1659.5791	929.1521	-420.49588	1650.61523	1061.03162	-556.82898	1598.6908	935.15594	-549.21765	1595.07898	1064.28186	-545.55951	1441.15051	989.80743	-567.56512	1111.91858	1004.98322	-430.69064	1370.6665	992.65314	-383.25687	1196.74524	994.22827	-613.05414	1271.96326	1074.86475	-484.96121	1395.19141	829.39215	-510.13202	1193.86011	759.79407	-533.36377	1083.47217	752.03333	-531.6731	933.39856	729.72394	-489.84808	810.68262	772.31073	-549.08209	815.68097	732.31146	-521.92529	728.14423	733.453	-477.88	1402.4646	1153.1521	-490.06735	1203.16882	1245.83569	-457.59949	1086.18237	1264.94409	-406.20605	978.42975	1285.28979	-298.78583	873.47974	1266.17114	-355.72446	849.40094	1290.26416	-294.41138	793.77826	1301.95691	-372.01755	961.97614	910.4126	-397.78394	959.14539	1128.84387	-534.71191	985.11755	925.02869	-546.09955	978.47614	1092.53894	-423.21591	649.99054	843.32928	-418.43063	485.30005	865.36243	-419.94437	229.71945	882.16901	-397.6377	61.7852	932.55853	-435.22125	48.78753	978.85626	-249.9433	36.09852	935.94202	-440.27133	617.97449	1192.56519	-422.51541	491.88589	1187.07117	-611.71753	323.6171	1160.75891	-758.55548	220.75772	1100.31958	-787.52502	238.08665	1047.94678	-721.91241	64.26362	1108.92212	-525.70282	1694.3064	992.21198	NaN	NaN	NaN	NaN	NaN	NaN	NaN	NaN	NaN	NaN	NaN	NaN	NaN	NaN	NaN
54	0.53	-416.74332	1660.60486	928.68927	-411.17847	1651.81482	1060.61426	-547.01312	1599.34717	934.3988	-539.72876	1595.86426	1063.56787	-535.59113	1442.00049	989.11566	-557.62335	1112.96729	1004.21503	-420.56738	1371.59448	992.44525	-373.53568	1197.56995	994.22778	-603.22375	1272.8208	1073.77771	-474.23572	1395.99841	828.97888	-495.66867	1194.1499	758.76001	-516.77167	1083.47217	750.19318	-511.68002	933.56403	727.50061	-467.83206	811.64404	770.18146	-526.67041	815.4826	729.57672	-497.52155	728.75018	730.51691	-468.53467	1403.26709	1152.82288	-482.24835	1203.60388	1244.65283	-451.00363	1086.06726	1263.27637	-402.84399	976.73035	1283.78992	-298.77402	867.95721	1265.22144	-356.90237	846.01428	1289.12427	-297.95685	788.73181	1301.4635	-362.90381	962.39575	909.96826	-388.16681	960.05548	1128.46045	-524.89081	985.92554	923.91895	-536.29834	979.29523	1091.46802	-417.51422	650.39276	842.9129	-414.21423	485.55444	865.05322	-418.03848	230.31726	882.27612	-397.55252	61.87187	932.5426	-435.3331	48.93288	978.81293	-250.02074	36.12281	935.90131	-424.80127	619.87079	1192.49707	-403.43524	494.24164	1187.33948	-591.76062	326.12964	1160.37976	-737.81158	222.3842	1099.9873	-768.27307	238.50395	1047.6239	-696.45288	67.54034	1110.68933	-516.32159	1695.08301	991.45056	NaN	NaN	NaN	NaN	NaN	NaN	NaN	NaN	NaN	NaN	NaN	NaN	NaN	NaN	NaN
